<svg xmlns="http://www.w3.org/2000/svg" viewBox="0 0 100 100" width="100" height="100">
  <!-- Fundo transparente ou branco opcional -->
  <!-- <rect width="100" height="100" fill="#ffffff"/> -->
  
  <!-- Versão simplificada do carrinho para favicon (mais legível em tamanho pequeno) -->
  <g transform="translate(12, 18)" fill="none" stroke="#2E8B3D" stroke-width="5" stroke-linecap="round" stroke-linejoin="round">
    <!-- Alça -->
    <path d="M 8 20 C 5 8 15 4 25 4 L 68 4 C 76 4 78 10 78 16"/>
    <!-- Cesto -->
    <path d="M 18 20 L 18 52 Q 18 58 24 58 L 62 58 Q 68 58 68 52 L 68 20"/>
    <!-- Grades -->
    <line x1="30" y1="26" x2="30" y2="52" stroke-width="3.5"/>
    <line x1="42" y1="26" x2="42" y2="52" stroke-width="3.5"/>
    <line x1="54" y1="26" x2="54" y2="52" stroke-width="3.5"/>
    <line x1="20" y1="38" x2="66" y2="38" stroke-width="3"/>
  </g>
  
  <!-- Rodas -->
  <circle cx="38" cy="82" r="7" fill="#2E8B3D"/>
  <circle cx="68" cy="82" r="7" fill="#2E8B3D"/>
  
  <!-- Letra K estilizada pequena (opcional para reconhecimento) -->
  <!-- Pode remover se preferir só o carrinho -->
</svg>
